<svg viewBox="0 0 396.851 99.213" height="99.213" width="396.851" xmlns="http://www.w3.org/2000/svg" preserveAspectRatio="none" class="_24w6Q">
	<defs>
	</defs>
	<path d="M105.215 31.779h-8.837v-4.85h24.045v4.85h-8.837v24.826h-6.371V31.779zM131.397 26.929v18.085c0 .822.048 1.665.144 2.527.096.863.349 1.651.76 2.364.412.713 1.049 1.294 1.912 1.746.863.452 2.076.679 3.638.679.247 0 .609-.014 1.089-.041.479-.027 1-.124 1.562-.288s1.116-.425 1.665-.781c.548-.355 1.027-.849 1.438-1.479a3.22 3.22 0 00.411-.739c.109-.274.206-.61.288-1.008.082-.396.144-.862.185-1.397.041-.534.062-1.171.062-1.911V26.929h6.207v18.537c0 2.22-.397 4.077-1.192 5.574-.795 1.496-1.823 2.699-3.083 3.611s-2.658 1.562-4.192 1.948c-1.535.387-3.056.58-4.562.58-.74 0-1.61-.055-2.61-.165-1-.111-2.014-.353-3.042-.726-1.027-.373-2.035-.898-3.021-1.575s-1.823-1.581-2.507-2.713c-.713-1.15-1.145-2.308-1.294-3.473a30.035 30.035 0 01-.226-3.844V26.929h6.368zm.945-8.504h4.192v4.85h-4.192v-4.85zm7.07 0h4.192v4.85h-4.192v-4.85zM162.305 26.929l7.769 23.387 7.809-23.387h6.289l-10.934 29.676h-6.946l-10.933-29.676h6.946zM189.72 26.929h10.604c.383 0 .85.007 1.398.021.547.014 1.137.062 1.766.145.631.082 1.262.22 1.891.411a6.92 6.92 0 011.768.823c1.125.714 1.953 1.599 2.488 2.655a7.432 7.432 0 01.801 3.395 7.665 7.665 0 01-.555 2.922 7.094 7.094 0 01-1.541 2.346c-.631.632-1.254 1.077-1.871 1.338-.615.261-1.158.46-1.623.597a9.04 9.04 0 011.85.698c.52.273.959.623 1.314 1.047s.645.958.863 1.601c.219.644.385 1.43.494 2.36.109.876.211 1.697.309 2.463.096.767.211 1.52.35 2.258.137.739.293 1.484.473 2.237.178.753.416 1.54.719 2.36h-4.398a15.248 15.248 0 01-.451-1.747c-.139-.671-.262-1.362-.371-2.075s-.205-1.418-.287-2.117a78.625 78.625 0 00-.246-1.911c-.139-1.068-.316-1.959-.535-2.672-.219-.712-.561-1.28-1.023-1.705-.465-.425-1.092-.727-1.885-.904-.791-.179-1.803-.268-3.029-.268h-5.16v13.399h-4.11V26.929zm4.028 12.824h7.108c.315 0 .67-.021 1.064-.062.396-.041.793-.11 1.189-.206.395-.097.73-.227 1.002-.393.137-.082.32-.213.555-.392.232-.179.457-.427.676-.743s.402-.695.553-1.136.225-.977.225-1.61c0-1.21-.232-2.139-.695-2.786-.465-.646-1.012-1.121-1.639-1.425a5.526 5.526 0 00-1.947-.536 20.658 20.658 0 00-1.617-.083h-6.473v9.372zM216.601 26.93h3.904v12.083c.63-1.096 1.542-1.938 2.733-2.527 1.192-.59 2.514-.884 3.967-.884.548 0 1.137.055 1.768.164.63.109 1.246.288 1.85.534a6.323 6.323 0 011.664 1.007c.507.426.911.953 1.213 1.583.109.22.205.445.287.678.083.233.15.534.206.904.055.37.103.815.144 1.336s.062 1.151.062 1.891v12.906h-3.945V44.398c0-.466-.021-1.028-.062-1.686s-.206-1.295-.493-1.911c-.288-.616-.733-1.144-1.336-1.583-.604-.438-1.453-.657-2.549-.657-.713 0-1.343.097-1.891.288a5.477 5.477 0 00-1.418.719c-.397.288-.72.59-.966.904a6.564 6.564 0 00-.575.843c-.329.575-.521 1.288-.576 2.138s-.082 1.589-.082 2.219v10.934h-3.904V26.93zM243.439 46.987c-.027 1.063.068 2.044.288 2.943.219.899.568 1.683 1.048 2.351a4.85 4.85 0 001.85 1.553c.753.368 1.664.552 2.733.552 1.26 0 2.343-.339 3.247-1.017.904-.679 1.438-1.751 1.603-3.217h3.863c-.055.521-.178 1.172-.369 1.952-.192.781-.658 1.569-1.397 2.363-.22.247-.521.535-.904.863a6.481 6.481 0 01-1.438.904c-.576.274-1.254.507-2.035.699-.78.191-1.692.287-2.733.287-3.261 0-5.672-.945-7.233-2.836-1.562-1.891-2.343-4.466-2.343-7.727 0-2.028.273-3.87.821-5.528s1.63-3.049 3.247-4.172c.493-.356 1.008-.631 1.542-.822s1.055-.343 1.562-.452.979-.178 1.418-.206c.438-.026.808-.041 1.11-.041 1.534 0 2.828.206 3.884.617 1.055.41 1.911.952 2.569 1.623a7.333 7.333 0 011.521 2.261c.355.836.609 1.686.76 2.548.15.863.227 1.692.227 2.487v2.014h-14.841zm10.892-2.713c0-.493-.041-1.089-.123-1.788a5.494 5.494 0 00-.637-1.993c-.343-.63-.857-1.171-1.542-1.623s-1.616-.679-2.795-.679c-.63 0-1.273.103-1.932.309a4.805 4.805 0 00-1.788 1.027c-.534.479-.979 1.104-1.336 1.87-.356.768-.548 1.727-.575 2.877h10.728zM263.127 26.93h4.645v4.233h-4.645V26.93zm.411 9.041h3.864v20.634h-3.864V35.971zM274.267 38.356l-.041-2.385h3.863l.041 3.33c.109-.22.295-.535.556-.945.26-.411.644-.822 1.15-1.233s1.157-.774 1.952-1.089c.795-.315 1.781-.473 2.96-.473.466 0 1.116.068 1.952.205.836.138 1.665.445 2.486.925.822.479 1.534 1.186 2.138 2.117.603.932.904 2.192.904 3.781v14.016h-3.946V43.494c0-.685-.068-1.329-.205-1.933a3.268 3.268 0 00-.904-1.603c-.493-.466-1.062-.815-1.706-1.048a5.702 5.702 0 00-3.986.02 4.59 4.59 0 00-1.706 1.15c-.493.521-.891 1.165-1.192 1.932-.302.768-.452 1.672-.452 2.713v11.879h-3.863V38.356zM298.722 26.93h3.863v29.635h-3.863V26.93zM322.027 56.605c-.138-.521-.233-1.027-.288-1.521s-.082-1.014-.082-1.562c-.466.85-.979 1.521-1.541 2.015-.562.493-1.131.87-1.706 1.13s-1.13.425-1.664.493c-.535.068-1.021.103-1.46.103-1.178 0-2.219-.157-3.123-.473-.904-.314-1.665-.746-2.281-1.294a5.354 5.354 0 01-1.397-1.933 6.017 6.017 0 01-.473-2.384 7.7 7.7 0 01.144-1.397c.096-.52.273-1.048.534-1.582s.623-1.068 1.09-1.604c.465-.534 1.082-1.021 1.85-1.459a8.15 8.15 0 011.808-.719 16.65 16.65 0 011.974-.411c.657-.096 1.28-.157 1.87-.186a35.247 35.247 0 011.5-.041c.493 0 .932.008 1.315.021.383.015.876.049 1.479.104 0-.631-.007-1.186-.021-1.665s-.041-.891-.082-1.233a4.391 4.391 0 00-.206-.925 2.238 2.238 0 00-.432-.739c-.384-.521-.938-.877-1.664-1.069-.727-.191-1.363-.287-1.911-.287-.986 0-1.754.144-2.302.432-.549.287-.96.623-1.233 1.007a2.857 2.857 0 00-.514 1.171 5.843 5.843 0 00-.103.884h-3.864a15.26 15.26 0 01.309-1.829c.15-.671.527-1.362 1.13-2.075a4.8 4.8 0 011.398-1.089 8.587 8.587 0 011.705-.679c.589-.164 1.192-.28 1.809-.35a16.217 16.217 0 011.747-.103c.739 0 1.486.062 2.24.185.753.124 1.459.309 2.116.556.658.246 1.247.562 1.768.945s.918.836 1.192 1.356c.328.63.527 1.198.596 1.705.068.508.103.994.103 1.459l-.164 9.865c0 .082.006.302.021.657.014.356.026.781.041 1.274.014.493.041 1.027.082 1.603.041.576.103 1.124.186 1.645h-3.496zm-.452-10.029a9.572 9.572 0 00-1.027-.103 28.692 28.692 0 00-1.192-.021c-.384 0-.986.021-1.809.062-.821.041-1.65.192-2.486.452a5.769 5.769 0 00-2.199 1.254c-.631.575-.945 1.384-.945 2.425 0 .329.062.699.186 1.11.123.41.342.801.657 1.171.314.37.746.679 1.295.925.548.247 1.26.37 2.137.37 1.974 0 3.438-.74 4.398-2.22.219-.355.391-.698.514-1.027s.212-.699.268-1.11c.054-.41.096-.883.123-1.418.025-.534.053-1.157.08-1.87zM331.81 38.356l-.041-2.385h3.863l.041 3.33c.109-.22.295-.535.556-.945.26-.411.644-.822 1.15-1.233s1.157-.774 1.952-1.089c.795-.315 1.781-.473 2.96-.473.466 0 1.116.068 1.952.205.836.138 1.665.445 2.486.925.822.479 1.534 1.186 2.138 2.117.603.932.904 2.192.904 3.781v14.016h-3.946V43.494c0-.685-.068-1.329-.205-1.933a3.268 3.268 0 00-.904-1.603c-.493-.466-1.062-.815-1.706-1.048a5.702 5.702 0 00-3.986.02 4.59 4.59 0 00-1.706 1.15c-.493.521-.891 1.165-1.192 1.932-.302.768-.452 1.672-.452 2.713v11.879h-3.863V38.356zM370.486 26.93h3.863v26.347c0 .109.007.295.021.555.014.261.027.549.041.863l.041.966c.014.329.034.631.062.904h-3.863l-.082-3.288c-.164.302-.377.645-.637 1.027-.261.384-.665.768-1.213 1.151-.85.575-1.733.973-2.651 1.191s-1.733.329-2.445.329c-.686 0-1.535-.123-2.549-.37-1.014-.246-1.986-.74-2.918-1.479-.932-.74-1.733-1.795-2.404-3.165-.672-1.37-1.007-3.191-1.007-5.467 0-1.973.26-3.664.78-5.076.521-1.411 1.213-2.575 2.076-3.493s1.855-1.597 2.979-2.035a9.539 9.539 0 013.494-.657c1.096 0 2.027.144 2.795.432.767.287 1.397.623 1.891 1.007s.869.768 1.13 1.15c.261.385.459.686.597.904V26.93zm.123 19.049c0-1.51-.151-2.712-.452-3.605-.302-.893-.672-1.613-1.109-2.163-.411-.549-.994-1.037-1.747-1.463-.754-.426-1.679-.639-2.774-.639-.96 0-1.761.172-2.404.515a4.814 4.814 0 00-1.583 1.319 6.532 6.532 0 00-.966 1.771 11.563 11.563 0 00-.514 1.896 11.53 11.53 0 00-.185 1.689c-.015.509-.021.873-.021 1.093 0 .906.075 1.833.226 2.781.15.947.432 1.8.843 2.555s.986 1.374 1.727 1.854c.739.481 1.698.722 2.877.722 1.507 0 2.678-.357 3.514-1.071s1.439-1.545 1.809-2.493c.37-.948.589-1.875.658-2.781.066-.908.101-1.567.101-1.98zM388.814 24.095c1.105 0 2.146.21 3.125.628.978.418 1.828.988 2.551 1.711s1.297 1.573 1.722 2.551c.426.979.639 2.027.639 3.146 0 1.135-.213 2.19-.639 3.168a8.203 8.203 0 01-1.732 2.562c-.729.73-1.584 1.305-2.562 1.723s-2.013.627-3.104.627c-1.092 0-2.123-.209-3.094-.627s-1.821-.992-2.551-1.723a8.345 8.345 0 01-1.744-2.562 7.749 7.749 0 01-.648-3.168c0-1.119.217-2.168.648-3.146a8.178 8.178 0 014.316-4.262 7.693 7.693 0 013.073-.628zm0 .957c-.965 0-1.875.188-2.732.563a7.412 7.412 0 00-2.254 1.52 7.169 7.169 0 00-1.53 2.243 6.78 6.78 0 00-.563 2.753c0 1.007.188 1.942.563 2.807a7.272 7.272 0 001.53 2.265 7.157 7.157 0 002.254 1.52 6.835 6.835 0 002.732.553 6.8 6.8 0 002.753-.563 7.3 7.3 0 002.253-1.53 7.108 7.108 0 001.521-2.265 7.05 7.05 0 00.553-2.785c0-.949-.181-1.853-.542-2.71s-.861-1.608-1.499-2.254c-.638-.645-1.39-1.158-2.254-1.541s-1.793-.576-2.785-.576zm-2.934 2.7h3.062c.156 0 .396.011.723.031.326.021.652.1.979.234.325.135.612.351.86.648s.372.716.372 1.254c0 .071-.007.195-.021.372a1.638 1.638 0 01-.181.585c-.106.213-.27.425-.489.638s-.528.376-.925.489c.453.113.769.283.946.51.177.228.301.61.372 1.148.07.539.134 1.021.191 1.445.056.426.162.851.318 1.275h-1.233a53.13 53.13 0 01-.116-.393 3.888 3.888 0 01-.096-.426 25.085 25.085 0 01-.213-1.435 3.615 3.615 0 00-.148-.808c-.071-.213-.174-.383-.309-.511s-.315-.216-.542-.266-.518-.074-.872-.074h-1.488v3.911h-1.19v-8.627zm1.19 3.699h1.871c.142 0 .312-.007.511-.021a1.54 1.54 0 00.563-.148c.177-.085.325-.216.446-.394.12-.177.181-.429.181-.755 0-.34-.061-.603-.181-.786a1.118 1.118 0 00-.437-.404 1.432 1.432 0 00-.553-.148 7.04 7.04 0 00-.531-.021h-1.871v2.677z">
	</path>
	<g>
		<path d="M110.778 78.151c-.152-.963-.61-1.738-1.375-2.324-.765-.585-1.847-.879-3.246-.879-.964 0-1.838.138-2.622.411a4.796 4.796 0 00-1.999 1.318 6.874 6.874 0 00-1.105 1.588 9.56 9.56 0 00-.666 1.715 10.21 10.21 0 00-.327 1.715 15.95 15.95 0 00-.084 1.559c0 .436.028.932.084 1.488.058.558.157 1.13.298 1.715.142.586.331 1.158.567 1.715a6.02 6.02 0 00.921 1.517c.34.379.718.7 1.134.964.416.266.855.473 1.318.624s.949.26 1.46.326c.51.066 1.021.099 1.531.099 1.171 0 2.125-.085 2.863-.255s1.266-.302 1.588-.396v-6.066h-4.677v-2.381h7.512V92.72c-.303.095-.685.214-1.148.355-.463.142-1.006.279-1.63.412-.624.132-1.314.246-2.07.341s-1.568.142-2.438.142c-1.89 0-3.42-.24-4.592-.723-1.172-.481-2.117-1.091-2.834-1.828a8.883 8.883 0 01-2.197-3.571 13.533 13.533 0 01-.666-4.224c0-.511.047-1.167.142-1.971.094-.803.293-1.653.595-2.551s.747-1.781 1.332-2.65c.586-.869 1.361-1.635 2.325-2.296a6.833 6.833 0 011.602-.794 13.137 13.137 0 011.615-.439c.52-.104.997-.165 1.432-.185.435-.019.784-.028 1.049-.028.397 0 .845.02 1.346.057a7.783 7.783 0 013.147.95 6.784 6.784 0 011.545 1.176c.302.322.543.634.723.936.179.303.312.596.396.879.085.283.143.549.171.794.028.246.052.463.071.651h-3.091zM120.388 86.883a7.718 7.718 0 00.198 2.029c.151.62.392 1.161.723 1.621.33.461.755.818 1.275 1.071.52.254 1.148.381 1.885.381.869 0 1.616-.234 2.24-.702s.992-1.207 1.105-2.218h2.665a10.71 10.71 0 01-.255 1.347c-.132.538-.454 1.082-.964 1.63-.151.17-.359.368-.624.595s-.595.436-.992.624c-.396.188-.864.35-1.403.481s-1.167.198-1.886.198c-2.249 0-3.911-.651-4.988-1.955-1.077-1.305-1.616-3.08-1.616-5.329 0-1.398.189-2.67.567-3.813.378-1.143 1.124-2.102 2.239-2.877.34-.245.694-.435 1.063-.566s.728-.236 1.077-.312c.35-.075.676-.122.979-.142.302-.019.557-.028.765-.028 1.058 0 1.951.142 2.679.426.727.283 1.318.656 1.772 1.119.454.464.803.983 1.049 1.56.245.576.42 1.162.524 1.757.104.596.156 1.167.156 1.715v1.39h-10.233zm7.511-1.871c0-.34-.028-.751-.085-1.233a3.813 3.813 0 00-.439-1.374c-.236-.435-.591-.809-1.063-1.12-.473-.312-1.115-.468-1.928-.468-.435 0-.878.071-1.332.213s-.865.378-1.233.708c-.368.331-.676.762-.921 1.29-.247.529-.378 1.19-.397 1.984h7.398zM134.419 80.93l-.028-1.644h2.665l.028 2.296c.075-.151.203-.369.383-.652.179-.283.444-.566.793-.851.35-.283.798-.533 1.347-.751.548-.217 1.228-.326 2.041-.326.32 0 .77.048 1.346.142a5.016 5.016 0 011.715.639c.567.33 1.058.817 1.474 1.459.416.643.624 1.513.624 2.608v9.666h-2.721v-9.043c0-.472-.047-.916-.142-1.332a2.254 2.254 0 00-.624-1.105 3.37 3.37 0 00-1.177-.723 3.939 3.939 0 00-2.749.014 3.188 3.188 0 00-1.176.794c-.34.359-.614.804-.822 1.332-.208.529-.312 1.153-.312 1.871v8.192h-2.665V80.93zM160.129 93.516a7.087 7.087 0 01-.198-1.049 9.705 9.705 0 01-.057-1.077c-.322.586-.677 1.049-1.063 1.389-.388.341-.78.601-1.177.78a4.067 4.067 0 01-1.148.34 8 8 0 01-1.006.07c-.812 0-1.531-.108-2.154-.325-.624-.218-1.148-.515-1.573-.894a3.702 3.702 0 01-.964-1.332 4.156 4.156 0 01-.326-1.645c0-.283.033-.604.099-.963s.188-.724.369-1.092c.179-.368.43-.737.751-1.105s.747-.704 1.276-1.006c.377-.208.793-.373 1.247-.496s.907-.218 1.36-.284c.454-.065.883-.108 1.29-.127a22.557 22.557 0 011.942-.014c.264.01.604.033 1.021.071 0-.435-.005-.817-.015-1.148a9.602 9.602 0 00-.057-.851 3.042 3.042 0 00-.142-.638 1.577 1.577 0 00-.297-.51c-.265-.359-.648-.604-1.148-.737-.501-.132-.94-.198-1.318-.198-.68 0-1.209.099-1.587.298-.378.198-.662.43-.851.694s-.307.534-.354.808a3.902 3.902 0 00-.071.609h-2.665c.038-.378.109-.798.213-1.262.104-.462.364-.939.779-1.431.265-.303.585-.553.964-.752.378-.198.77-.354 1.176-.468.406-.113.822-.193 1.248-.24s.826-.071 1.205-.071c.51 0 1.024.043 1.545.128.52.085 1.006.212 1.46.383.453.17.859.387 1.219.651.359.265.633.577.822.936.227.436.363.827.411 1.177.047.35.071.685.071 1.006l-.113 6.804c0 .057.004.208.014.453.009.246.019.539.028.879.009.34.028.709.057 1.105.028.396.071.775.128 1.134h-2.411zm-.312-6.917a6.51 6.51 0 00-.709-.07c-.227-.01-.501-.015-.822-.015-.265 0-.681.015-1.248.043a6.918 6.918 0 00-1.715.312 3.975 3.975 0 00-1.517.865c-.435.396-.652.954-.652 1.672 0 .227.043.482.128.766s.236.553.454.808c.217.255.514.468.893.638.377.17.869.255 1.474.255 1.36 0 2.372-.51 3.033-1.53.151-.245.27-.481.354-.709a3.5 3.5 0 00.184-.765c.038-.284.066-.609.084-.979.021-.369.04-.799.059-1.291zM169.455 79.286v9.155c0 .341.028.699.085 1.077.057.379.194.719.411 1.021.217.303.524.553.921.751.397.199.936.298 1.616.298.661 0 1.29-.122 1.885-.368a3.186 3.186 0 001.459-1.219c.302-.435.477-.897.524-1.39.047-.491.071-.916.071-1.275v-8.05h2.75V90.85c0 .076.004.218.014.426.009.208.019.444.028.709l.028.821c.009.284.014.521.014.709h-2.778l-.057-2.438c-.132.245-.297.52-.496.821a3.367 3.367 0 01-.808.837c-.34.255-.775.473-1.304.651-.529.18-1.172.27-1.928.27-.889 0-1.654-.118-2.296-.354-.643-.235-1.177-.566-1.602-.992a4.004 4.004 0 01-.95-1.53 5.848 5.848 0 01-.312-1.941v-9.553h2.725zM183.939 90.114h3.146v3.401h-3.146v-3.401zM199.561 73.05h7.313c.266 0 .587.005.965.014.378.01.784.043 1.218.1.436.057.87.151 1.306.284.434.133.84.321 1.219.567.774.492 1.346 1.103 1.715 1.831.368.729.553 1.509.553 2.341a5.3 5.3 0 01-.383 2.016 4.86 4.86 0 01-1.063 1.618c-.435.436-.864.742-1.289.922-.427.181-.799.317-1.12.412.491.132.917.293 1.275.481s.661.43.907.722c.245.292.443.66.596 1.104.15.444.265.986.339 1.629l.213 1.698c.067.528.146 1.048.241 1.557.095.51.203 1.024.325 1.543.124.52.288 1.062.496 1.628h-3.033a10.62 10.62 0 01-.311-1.205c-.095-.463-.18-.939-.256-1.431a41.361 41.361 0 01-.197-1.46 58.676 58.676 0 00-.17-1.318c-.096-.737-.218-1.351-.369-1.843-.151-.491-.387-.883-.706-1.176-.32-.293-.753-.501-1.3-.624-.546-.123-1.242-.185-2.089-.185h-3.559v9.241h-2.835V73.05zm2.779 8.844h4.901a7.035 7.035 0 001.555-.186c.272-.066.502-.156.691-.271.094-.057.222-.146.382-.27.159-.123.315-.294.466-.513s.278-.479.382-.783c.103-.304.155-.674.155-1.11 0-.835-.161-1.476-.48-1.922-.32-.446-.697-.773-1.131-.982a3.802 3.802 0 00-1.342-.37 14.213 14.213 0 00-1.116-.057h-4.463v6.464zM218.186 73.106h3.203v2.919h-3.203v-2.919zm.283 6.18h2.665v14.229h-2.665V79.286zM234.144 83.85a15.88 15.88 0 00-.113-.751 3.038 3.038 0 00-.369-.992 2.58 2.58 0 00-.836-.865c-.369-.245-.874-.368-1.518-.368-.926 0-1.639.227-2.139.681a4.024 4.024 0 00-1.092 1.587 6.205 6.205 0 00-.396 1.8 23.175 23.175 0 00-.058 1.29c0 .737.053 1.441.157 2.112.104.671.287 1.271.553 1.8.264.529.623.949 1.077 1.262.453.312 1.038.467 1.757.467.567 0 1.044-.094 1.432-.283.387-.188.699-.435.936-.737.236-.302.41-.638.523-1.006.114-.368.181-.723.199-1.062h2.693a5.535 5.535 0 01-.469 1.97 4.982 4.982 0 01-1.147 1.615 5.455 5.455 0 01-1.786 1.105c-.699.274-1.483.411-2.354.411-.244 0-.557-.019-.935-.057s-.779-.118-1.204-.24a6.463 6.463 0 01-1.308-.553 4.94 4.94 0 01-1.241-.992 8.257 8.257 0 01-.63-.851c-.21-.321-.396-.699-.559-1.134s-.291-.936-.387-1.503a11.822 11.822 0 01-.143-1.956c0-1.474.205-2.707.616-3.699.409-.991.935-1.78 1.572-2.366s1.336-1.002 2.092-1.247a7.12 7.12 0 012.211-.369c.227 0 .523.02.893.057a6.233 6.233 0 012.381.765c.407.227.77.538 1.092.936.529.604.85 1.186.964 1.743.113.558.188 1.034.228 1.432h-2.692zM239.981 73.078h2.694v8.306c.435-.756 1.062-1.337 1.885-1.744.821-.406 1.733-.609 2.735-.609.377 0 .784.038 1.219.113.434.076.859.199 1.275.369s.799.401 1.148.694.627.657.836 1.091c.076.152.143.308.199.468.057.161.104.369.142.624a14.899 14.899 0 01.142 2.226v8.9h-2.722v-8.419c0-.321-.014-.709-.042-1.162s-.142-.893-.341-1.318a2.808 2.808 0 00-.921-1.091c-.417-.303-1.002-.454-1.758-.454-.492 0-.926.066-1.305.198a3.84 3.84 0 00-.977.496 3.303 3.303 0 00-.666.624c-.17.218-.303.411-.398.581-.226.396-.357.889-.396 1.474a24.767 24.767 0 00-.056 1.531v7.54h-2.694V73.078zM254.921 79.229h2.523v-2.977l2.607-.851v3.827h3.175v1.955h-3.175v8.532c0 .171.009.369.028.596.019.227.089.435.213.624.122.188.312.35.566.481.256.133.618.198 1.092.198.265 0 .515-.014.751-.042s.411-.062.524-.1v2.069c-.246.038-.554.075-.921.113-.37.038-.799.057-1.291.057-1.222 0-2.122-.213-2.701-.638-.58-.425-.869-1.224-.869-2.396v-9.496h-2.523v-1.952zM266.202 73.106h3.204v2.919h-3.204v-2.919zm.283 6.18h2.666v14.229h-2.666V79.286zM276.577 94.621c.02.396.086.766.199 1.105s.297.633.553.879c.255.245.59.439 1.006.581s.936.213 1.559.213c.926 0 1.645-.161 2.154-.482s.884-.77 1.12-1.347c.235-.576.378-1.266.426-2.069.046-.803.07-1.687.07-2.65-.283.587-.647 1.04-1.091 1.361a5.294 5.294 0 01-1.361.723 5.044 5.044 0 01-1.305.283c-.405.028-.713.043-.92.043-.322 0-.677-.023-1.062-.071a6.389 6.389 0 01-1.164-.255 5.187 5.187 0 01-1.134-.524 3.934 3.934 0 01-1.005-.907 6.143 6.143 0 01-1.262-2.438 11.058 11.058 0 01-.354-2.807c0-1.209.166-2.263.496-3.16.331-.897.784-1.645 1.361-2.239a5.514 5.514 0 012.013-1.333 6.79 6.79 0 012.451-.439c.719 0 1.328.076 1.829.228.5.151.925.34 1.275.566.35.227.628.464.836.709.208.246.386.463.539.651l.028-1.955h2.607l-.057 2.579-.029 8.9c0 .851-.009 1.588-.027 2.211a23.16 23.16 0 01-.1 1.616 7.097 7.097 0 01-.213 1.177c-.095.33-.209.628-.341.893-.304.567-.691 1.021-1.165 1.36-.475.341-.98.596-1.52.766-.54.17-1.095.283-1.664.34-.566.057-1.097.085-1.59.085-.947 0-1.752-.07-2.414-.212-.663-.142-1.213-.326-1.648-.553-.436-.228-.776-.496-1.022-.809-.246-.312-.436-.638-.568-.978s-.218-.686-.257-1.035c-.037-.35-.066-.685-.084-1.006h2.835zm3.091-3.316c.793 0 1.431-.128 1.913-.384.48-.256.883-.602 1.205-1.038.132-.189.258-.388.382-.596.122-.209.228-.465.312-.768.084-.304.15-.673.198-1.109.047-.436.07-.976.07-1.62 0-.909-.096-1.634-.283-2.175-.188-.539-.464-.999-.822-1.378s-.808-.682-1.346-.91a4.375 4.375 0 00-1.715-.341c-.852 0-1.526.189-2.027.569-.502.379-.884.838-1.148 1.378s-.438 1.108-.523 1.706a11.2 11.2 0 00-.128 1.577c0 .55.051 1.123.155 1.72.104.598.298 1.146.582 1.648.283.503.68.914 1.189 1.236.511.324 1.172.485 1.986.485zM290.948 90.114h3.146v3.401h-3.146v-3.401z">
		</path>
	</g>
	<g>
		<path d="M73.993 59.416a84.894 84.894 0 00-14.458-1.253c-6.869 0-13.493.84-19.85 2.478-6.297 1.649-12.99 2.528-19.827 2.528-2.441 0-4.804-.103-7.145-.342l26.955-46.71 16.304 28.176a79.2 79.2 0 00-16.288 2.405 78.074 78.074 0 01-11.774 2.076L23 57.277c5.725-.224 11.337-1.086 16.684-2.424 6.354-1.644 12.975-2.493 19.843-2.493 3.635 0 7.283.243 10.802.71l-5.166-8.944-13.352-23.129L39.686 0 0 68.732c6.332 1.73 12.978 2.566 19.853 2.566 6.84 0 13.536-.836 19.833-2.566 6.354-1.57 12.975-2.474 19.843-2.474 6.838 0 13.489.903 19.841 2.474l-5.377-9.316z" fill="#0071B9">
		</path>
	</g>
</svg>